<?xml version="1.0" encoding="utf-8"?>
<!-- Svg Vector Icons : http://www.onlinewebfonts.com/icon -->
<!DOCTYPE svg PUBLIC "-//W3C//DTD SVG 1.1//EN" "http://www.w3.org/Graphics/SVG/1.1/DTD/svg11.dtd">
<svg version="1.1" xmlns="http://www.w3.org/2000/svg" xmlns:xlink="http://www.w3.org/1999/xlink" x="0px" y="0px" viewBox="0 0 1000 1000" enable-background="new 0 0 1000 1000" xml:space="preserve">
<metadata> Svg Vector Icons : http://www.onlinewebfonts.com/icon </metadata>
<g><g transform="translate(0.000000,512.000000) scale(0.100000,-0.100000)"><path d="M2149.2,4905.2c-13.4-61.2-28.7-120.5-36.4-133.9c-9.6-15.3-68.9,1.9-197.1,53.6l-183.7,74.6l-717.5-1148L297.1,2601.6l84.2-248.7c45.9-137.8,84.2-254.5,84.2-256.4c0-3.8-82.3,36.4-181.8,91.8L100,2285.9l5.7-1306.8l5.7-1308.7l49.8-107.1c28.7-61.2,179.8-264.1,348.2-470.7L806-1271l256.4-17.2l254.5-17.2l-229.6-91.8L857.7-1491L484.6-2554.8L111.5-3620.5v-334.8c0-304.2,3.8-342.5,42.1-424.8c57.4-126.3,200.9-273.6,329.1-334.8l107.1-53.6l1842.5-5.7l1842.5-3.8l960.5,231.5c528.1,126.3,1098.3,264.1,1266.6,306.1c168.4,40.2,323.4,78.5,346.3,84.2c28.7,5.7,45.9,34.4,63.1,109.1c15.3,55.5,30.6,109.1,36.4,120.5c5.7,9.6,28.7-42.1,51.6-114.8l40.2-133.9l600.8-273.6c331-149.2,646.7-285.1,702.2-302.3c82.3-23,187.5-28.7,583.6-23l484,5.7l107.1,53.6c128.2,61.2,271.7,208.6,329.1,334.8c40.2,86.1,42.1,116.7,47.8,788.3c3.8,445.8-1.9,727.1-15.3,778.7c-9.6,44-208.6,478.3-442,966.2c-231.5,487.9-426.7,910.7-432.4,939.4c-9.6,45.9-40.2,67-239.2,160.7c-139.7,67-218.1,112.9-202.8,120.5c13.4,7.7,80.4,21,149.2,26.8c258.3,26.8,266,30.6,306.1,105.2c19.1,38.3,200.9,271.7,403.7,518.5C9636,284.5,9810.1,518,9838.8,579.2l49.7,105.2l5.8,801.7l5.7,801.7l-759.6,1216.9c-417.1,669.7-771.1,1228.4-782.6,1243.7c-21,21-53.5,21-191.3,1.9c-89.9-13.4-168.3-19.1-174.1-13.4c-7.7,7.7,3.8,76.5,40.2,239.2l9.6,42.1H5109.1H2174L2149.2,4905.2z M3852,3544.8v-1148H2283.1H714.2l-21,53.6c-11.5,28.7-23,68.9-23,89.9c-3.8,44,1172.9,1940.1,1203.5,1942c11.5,0,118.6-38.3,239.2-86.1c120.5-47.8,220-86.1,220-86.1c1.9,0,13.4,40.2,24.9,91.8c13.4,49.7,34.4,135.8,51.7,191.3l28.7,99.5h706H3852V3544.8z M4894.8,4648.8c-74.6-63.1-74.6-174.1-1.9-235.3c158.8-137.8,363.5,82.3,212.4,231.5l-45.9,47.8H5442h380.7l-3.8-1142.3l-5.8-1144.2l-382.7-5.7l-380.7-3.8l47.8,51.7c68.9,74.6,78.5,112.9,47.8,185.6c-17.2,42.1-45.9,70.8-86.1,84.2c-183.7,63.1-302.3-166.5-149.2-287c40.2-32.5,26.8-34.4-340.6-28.7l-382.7,3.8l-5.7,1144.2l-3.8,1142.3h382.7h384.6L4894.8,4648.8z M7640.4,4679.4c-1.9-9.6-13.4-70.8-28.7-139.7c-15.3-68.9-26.8-141.6-28.7-164.6V4337l292.8,42.1c218.1,30.6,296.6,36.4,311.8,19.1c38.3-36.3,1232.2-1957.3,1232.2-1980.3c0-15.3-453.4-21-1635.9-21H6148v1148v1148h746.2C7305.5,4692.8,7640.4,4687.1,7640.4,4679.4z M3852,416.6c0-910.7,5.7-1655,13.4-1655c7.7,0,120.5,105.2,248.7,233.4l235.3,235.3l325.3-325.3l325.3-325.3l325.3,325.3l325.3,325.3l235.4-235.3c128.2-128.2,241.1-233.4,248.7-233.4c7.7,0,13.4,744.3,13.4,1655v1655h1712.4h1712.4v-654.4c0-524.2-5.7-665.8-26.8-707.9c-15.3-28.7-197.1-258.3-403.7-510.8c-319.5-390.3-386.5-461.1-436.2-470.7c-34.5-5.7-340.6-44-683.1-86.1c-342.5-42.1-627.5-78.4-637.1-82.3c-7.7-1.9,283.2-145.4,646.7-317.6c363.5-174.1,669.7-325.3,677.3-334.8c9.6-11.5,204.7-413.3,434.3-891.6l419-870.6v-707.9c0-952.8,55.5-880.1-660.1-880.1h-487.9L7870-4196.4c-300.4,137.7-549.1,250.6-553,252.5c-3.8,3.8-82.3,269.8-176,593.1c-91.9,321.4-172.2,591.2-178,595c-3.8,5.7-17.2-19.1-26.8-55.5c-44-155-313.8-1058.1-317.6-1061.9c-1.9-3.8-539.5-133.9-1193.9-292.7l-1190.1-287H2451.5H670.2L873-4244.3c183.7,187.5,204.7,216.2,204.7,279.3c0,93.8-68.9,162.6-162.6,162.6c-63.1,0-91.8-21-279.3-204.7l-208.5-202.8v248.7v248.7l308,878.2c168.4,484.1,323.3,928,346.3,987.3l38.3,109.1l491.7,195.1c269.8,107.2,493.6,199,497.5,200.9c9.6,9.6-30.6,294.7-44,308.1c-7.7,7.6-882,74.6-1075.3,82.3c-24.9,0-493.6,566.3-533.8,644.8c-23,44-28.7,218.1-28.7,1044.7c0,543.4,5.7,989.2,15.3,989.2c7.7,0,141.6-68.9,298.5-153.1c156.9-84.2,287-153.1,290.8-153.1c1.9,0-42.1,139.7-99.5,310C874.9,1901.3,829,2048.6,829,2056.3s681.1,15.3,1511.5,15.3H3852V416.6z M4349.5,2042.9c0-17.2,21-51.7,47.8-76.5c84.2-86.1,231.5-47.8,267.9,67c11.5,36.3,26.8,38.3,334.8,38.3s323.3-1.9,334.8-38.3c36.4-114.8,183.7-153.1,267.9-67c26.8,24.9,47.8,59.3,47.8,76.5c0,21,21.1,28.7,86.1,28.7h86.1V805V-463.6l-80.3,82.3l-82.3,80.4L5331-630l-331-331l-331,331l-329.1,329.1l-82.3-80.4l-80.4-82.3V805v1266.6h86.1C4328.4,2071.6,4349.5,2063.9,4349.5,2042.9z"/><path d="M4397.3,4147.5c-67-65.1-63.1-149.2,9.6-223.9c49.8-47.8,68.9-55.5,120.5-45.9c91.8,17.2,153.1,97.6,139.7,181.8C4646,4193.5,4491.1,4243.2,4397.3,4147.5z"/><path d="M5373.1,4147.5c-61.2-59.3-61.2-143.5-1.9-212.4c93.8-111,279.3-38.3,279.3,109.1C5650.5,4178.1,5470.7,4247,5373.1,4147.5z"/><path d="M4921.6,3688.3c-55.5-30.6-99.5-126.3-80.4-177.9c5.7-17.2,28.7-51.7,49.7-74.6c76.5-86.1,225.8-44,267.9,74.6c19.1,53.6-24.9,149.2-84.2,177.9C5009.6,3722.8,4984.7,3722.8,4921.6,3688.3z"/><path d="M4397.3,3171.7c-89.9-88-45.9-239.2,80.4-269.8c101.4-26.8,216.2,88,189.4,189.4C4636.5,3217.7,4485.3,3261.7,4397.3,3171.7z"/><path d="M5386.5,3181.3c-88-82.3-70.8-204.7,36.3-265.9c97.6-55.5,227.7,26.8,227.7,145.4C5650.5,3194.7,5484.1,3271.2,5386.5,3181.3z"/><path d="M4890.9,1704.2c-57.4-65.1-65.1-105.2-36.4-176c70.8-168.4,308-112.9,302.3,70.8C5153.1,1729.1,4977,1798,4890.9,1704.2z"/><path d="M4406.9,1214.4c-133.9-135.8,0-329.1,181.8-260.2c36.3,15.3,86.1,105.2,86.1,158.8c0,57.4-78.4,133.9-147.3,147.3C4475.8,1269.9,4456.6,1262.3,4406.9,1214.4z"/><path d="M5428.6,1248.9c-162.6-65-116.7-306.1,59.3-306.1c151.2,0,214.3,160.7,107.2,269.8C5537.7,1269.9,5499.4,1277.6,5428.6,1248.9z"/><path d="M4892.9,726.5c-61.2-53.6-68.9-137.8-21-212.4c59.3-89.9,197.1-89.9,254.5,0C5233.4,676.8,5038.3,850.9,4892.9,726.5z"/><path d="M4452.8,273.1c-103.3-40.2-133.9-174.1-59.3-258.3c109.1-128.2,315.7-11.5,273.6,153.1C4648,244.4,4529.3,303.7,4452.8,273.1z"/><path d="M5445.8,278.8c-24.9-3.8-61.2-30.6-82.3-57.4c-128.2-162.6,105.2-357.8,244.9-204.7C5711.8,133.4,5602.7,307.5,5445.8,278.8z"/><path d="M4894.8-249.3c-74.6-63.1-74.6-174.1-1.9-235.3c158.8-137.8,363.5,82.3,212.4,231.5C5045.9-191.9,4961.7-191.9,4894.8-249.3z"/></g></g>
</svg>