<svg xmlns="http://www.w3.org/2000/svg" xmlns:xlink="http://www.w3.org/1999/xlink" version="1.0" x="0px" y="0px" viewBox="0 0 90 90" style="enable-background:new 0 0 90 90;" xml:space="preserve"><style type="text/css">

	.st0{fill:none;stroke:#000000;stroke-width:0.4;stroke-linecap:round;stroke-linejoin:round;stroke-miterlimit:10;}

</style><g><path class="st0" d="M72.6,45.1c-6.5,0-11.8-2.1-11.8-4.7v2.4c0,2.6,5.3,4.7,11.8,4.7c6.5,0,11.8-2.1,11.8-4.7v-2.4   C84.4,43,79.2,45.1,72.6,45.1z"></path></g><g><path class="st0" d="M72.6,49.8c-6.5,0-11.8-2.1-11.8-4.7v2.4c0,2.6,5.3,4.7,11.8,4.7c6.5,0,11.8-2.1,11.8-4.7v-2.4   C84.4,47.7,79.2,49.8,72.6,49.8z"></path></g><g><path class="st0" d="M72.6,54.5c-6.5,0-11.8-2.1-11.8-4.7v2.4c0,2.6,5.3,4.7,11.8,4.7c6.5,0,11.8-2.1,11.8-4.7v-2.4   C84.4,52.4,79.2,54.5,72.6,54.5z"></path></g><g><path class="st0" d="M72.6,59.2c-6.5,0-11.8-2.1-11.8-4.7V57c0,2.6,5.3,4.7,11.8,4.7c6.5,0,11.8-2.1,11.8-4.7v-2.4   C84.4,57.1,79.2,59.2,72.6,59.2z"></path></g><g><path class="st0" d="M72.6,64c-6.5,0-11.8-2.1-11.8-4.7v2.4c0,2.6,5.3,4.7,11.8,4.7c6.5,0,11.8-2.1,11.8-4.7v-2.4   C84.4,61.9,79.1,64,72.6,64z"></path></g><g><path class="st0" d="M72.6,68.7c-6.5,0-11.8-2.1-11.8-4.7v2.4c0,2.6,5.3,4.7,11.8,4.7c6.5,0,11.8-2.1,11.8-4.7V64   C84.4,66.6,79.1,68.7,72.6,68.7z"></path></g><path class="st0" d="M60.8,35.6v2.4c0,2.6,5.3,4.7,11.8,4.7c6.5,0,11.8-2.1,11.8-4.7v-2.3c0,0,0-0.1,0-0.1c0-2.6-5.3-4.7-11.8-4.7  C66.1,31,60.9,33.1,60.8,35.6"></path><g><path class="st0" d="M45.1,59.3c-6.5,0-11.8-2.1-11.8-4.7V57c0,2.6,5.3,4.7,11.8,4.7c6.5,0,11.8-2.1,11.8-4.7v-2.4   C56.9,57.2,51.6,59.3,45.1,59.3z"></path></g><g><path class="st0" d="M45.1,64c-6.5,0-11.8-2.1-11.8-4.7v2.4c0,2.6,5.3,4.7,11.8,4.7c6.5,0,11.8-2.1,11.8-4.7v-2.4   C56.9,61.9,51.6,64,45.1,64z"></path></g><g><path class="st0" d="M45.1,68.7c-6.5,0-11.8-2.1-11.8-4.7v2.4c0,2.6,5.3,4.7,11.8,4.7c6.5,0,11.8-2.1,11.8-4.7V64   C56.9,66.6,51.6,68.7,45.1,68.7z"></path></g><path class="st0" d="M33.3,49.8v2.4c0,2.6,5.3,4.7,11.8,4.7c6.5,0,11.8-2.1,11.8-4.7v-2.3c0,0,0-0.1,0-0.1c0-2.6-5.3-4.7-11.8-4.7  C38.6,45.1,33.3,47.2,33.3,49.8"></path><g><path class="st0" d="M17.4,68.7c-6.5,0-11.8-2.1-11.8-4.7v2.4c0,2.6,5.3,4.7,11.8,4.7c6.5,0,11.8-2.1,11.8-4.7V64   C29.1,66.6,23.9,68.7,17.4,68.7z"></path></g><path class="st0" d="M5.6,59.2v2.4c0,2.6,5.3,4.7,11.8,4.7c6.5,0,11.8-2.1,11.8-4.7v-2.3c0,0,0-0.1,0-0.1c0-2.6-5.3-4.7-11.8-4.7  C10.9,54.6,5.6,56.7,5.6,59.2"></path></svg>