<?xml version="1.0" encoding="utf-8"?>
<!-- Svg Vector Icons : http://www.onlinewebfonts.com/icon -->
<!DOCTYPE svg PUBLIC "-//W3C//DTD SVG 1.1//EN" "http://www.w3.org/Graphics/SVG/1.1/DTD/svg11.dtd">
<svg version="1.1" xmlns="http://www.w3.org/2000/svg" xmlns:xlink="http://www.w3.org/1999/xlink" x="0px" y="0px" viewBox="0 0 1000 1000" enable-background="new 0 0 1000 1000" xml:space="preserve">
<metadata> Svg Vector Icons : http://www.onlinewebfonts.com/icon </metadata>
<g><g transform="translate(0.000000,511.000000) scale(0.100000,-0.100000)"><path d="M1562.6,3191.4c-160.1-71.2-276.7-215.4-306.3-379.5l-13.8-73.1H671.2H100v-148.2v-148.2h1126.6h1126.6v148.2v148.2H1948c-454.6,0-464.5,4-338,130.4l67.2,67.2H4128c2201.8,0,2454.7-4,2482.4-31.6c17.8-15.8,31.6-35.6,31.6-41.5c0-13.8-551.4-3148.5-563.3-3201.8l-9.9-45.5H3499.5c-2498.2,0-2569.4,2-2569.4,37.6c0,19.8,5.9,65.2,11.9,98.8l13.8,61.3h697.7h699.7v148.2v148.2H1226.6H100V-38.1v-148.2h278.7h278.7l-11.9-53.4c-45.5-211.5-249-1413.2-249-1468.5c2-100.8,65.2-223.3,150.2-288.6l73.1-57.3l486.2-9.9l486.2-9.9l11.9-170c25.7-369.6,253-648.3,600.8-739.2c351.8-90.9,739.2,27.7,1029.7,316.2c158.1,156.2,235.2,276.7,298.4,464.5l43.5,128.5l1393.4,5.9l1395.4,4v-96.9c0-407.1,258.9-739.2,650.3-832.1c65.2-15.8,168-21.7,266.8-13.8c450.6,27.7,881.5,367.6,1023.8,806.4l43.5,136.4h444.7c426.9,0,450.6,2,547.5,47.4c106.7,49.4,213.5,162.1,245.1,258.9c9.9,31.6,87,446.7,170,919c124.5,711.5,148.2,885.4,142.3,1008c-9.9,138.3-33.6,205.5-369.6,1013.9c-197.6,476.3-375.5,901.3-397.3,940.8c-19.8,41.5-73.1,106.7-116.6,146.3l-81,73.1H7897c-832.1,0-1037.6,5.9-1037.6,25.7c0,13.8,17.8,126.5,41.5,249c33.6,189.7,37.6,241.1,17.8,316.2c-29.6,120.6-98.8,205.5-203.6,256.9l-85,41.5H4139.8C1681.1,3232.9,1649.5,3231,1562.6,3191.4z M8899.1,1928.5c29.6-59.3,55.3-114.6,55.3-122.5c0-9.9-365.6-15.8-810.3-15.8c-768.8,0-816.3-2-887.4-39.5c-132.4-67.2-152.2-120.6-260.9-735.2c-59.3-336-94.9-583-87-620.6c5.9-35.6,29.6-87,53.4-116.6c87-110.7,69.2-108.7,1409.2-108.7h1235.3V98.3c0-55.4-235.2-1446.7-288.5-1711.6c-5.9-27.7-33.6-75.1-61.3-102.8l-51.4-51.4h-428.9h-430.9l-11.9,85c-53.3,355.8-426.9,646.3-830.1,646.3c-124.5,0-371.6-69.2-511.9-142.3c-156.1-81-421-343.9-488.2-484.2l-49.4-102.8l-1436.9-2H3582.5l-23.7,104.7c-77.1,326.1-343.9,561.3-701.6,612.7c-424.9,61.3-919-213.4-1136.5-632.5l-43.5-85h-482.3c-430.9,0-484.2,4-496.1,31.6c-5.9,19.8,27.7,260.9,75.1,539.6l88.9,506l2727.5,5.9l2727.5,4l223.3,1270.8c122.5,697.7,227.3,1288.6,233.2,1312.4c5.9,23.7,31.6,67.2,59.3,94.9l51.4,49.4l980.3-4l980.3-5.9L8899.1,1928.5z M7980.1,1098.4c11.8-211.5,23.7-440.7,23.7-507.9l2-124.5h-395.3c-217.4,0-395.3,7.9-395.3,17.8c0,41.5,160.1,976.4,170,992.2c5.9,9.9,136.4,15.8,290.5,13.8l280.7-5.9L7980.1,1098.4z M9146.2,1341.5c33.6-85,128.5-316.2,211.5-513.9l148.2-361.7H8907h-598.9l-23.7,470.4c-11.8,256.9-27.7,488.2-33.6,513.9l-7.9,43.5h419h421L9146.2,1341.5z M2884.8-1354.4c189.7-39.5,357.7-211.5,397.3-407.2c67.2-320.2-156.1-707.6-504-877.5c-126.5-61.3-154.2-67.2-326.1-67.2c-209.5,0-294.5,31.6-413.1,150.2c-351.8,351.8-45.5,1055.4,521.8,1195.7C2687.2-1328.7,2762.3-1326.7,2884.8-1354.4z M7780.4-1401.8c369.6-181.8,377.5-715.5,13.8-1069.2c-274.7-268.8-711.5-320.2-950.7-114.6c-134.4,114.6-172,203.6-172,413.1c0,160.1,5.9,191.7,63.3,312.3C6936.5-1437.4,7418.7-1225.9,7780.4-1401.8z"/><path d="M455.8,1938.4v-148.2h1116.7h1116.7v148.2v148.2H1572.4H455.8V1938.4z"/><path d="M831.3,1276.3v-138.4h1126.6h1126.6v138.4v138.3H1957.9H831.3V1276.3z"/><path d="M455.8,614.2V465.9h1116.7h1116.7v148.2v148.2H1572.4H455.8V614.2z"/></g></g>
</svg>