<?xml version="1.0" encoding="UTF-8" standalone="no"?>
<!-- Created with Inkscape (http://www.inkscape.org/) -->
<svg
   xmlns:dc="http://purl.org/dc/elements/1.1/"
   xmlns:cc="http://creativecommons.org/ns#"
   xmlns:rdf="http://www.w3.org/1999/02/22-rdf-syntax-ns#"
   xmlns:svg="http://www.w3.org/2000/svg"
   xmlns="http://www.w3.org/2000/svg"
   xmlns:sodipodi="http://sodipodi.sourceforge.net/DTD/sodipodi-0.dtd"
   xmlns:inkscape="http://www.inkscape.org/namespaces/inkscape"
   width="637.79529"
   height="496.06299"
   id="svg1367"
   sodipodi:version="0.32"
   inkscape:version="0.46"
   sodipodi:docbase="D:\Customers\ALCAN"
   sodipodi:docname="FRAGILE.svg"
   inkscape:output_extension="org.inkscape.output.svg.inkscape"
   version="1.0">
  <defs
     id="defs1369">
    <inkscape:perspective
       sodipodi:type="inkscape:persp3d"
       inkscape:vp_x="0 : 372.04724 : 1"
       inkscape:vp_y="0 : 1000 : 0"
       inkscape:vp_z="1052.3622 : 372.04724 : 1"
       inkscape:persp3d-origin="526.18109 : 248.03149 : 1"
       id="perspective13" />
  </defs>
  <sodipodi:namedview
     inkscape:document-units="mm"
     pagecolor="#ffffff"
     bordercolor="#666666"
     borderopacity="1.0"
     inkscape:pageopacity="0.0"
     inkscape:pageshadow="2"
     inkscape:zoom="0.69166667"
     inkscape:cx="625.69217"
     inkscape:cy="114.41967"
     inkscape:current-layer="layer1"
     id="namedview1371"
     inkscape:window-width="1680"
     inkscape:window-height="994"
     inkscape:window-x="-4"
     inkscape:window-y="-4"
     showgrid="false"
     showguides="true"
     inkscape:guide-bbox="true"
     inkscape:snap-global="true"
     inkscape:snap-guide="false"
     guidetolerance="12"
     units="mm" />
  <metadata
     id="metadata1373">
    <rdf:RDF>
      <cc:Work
         rdf:about="">
        <dc:format>image/svg+xml</dc:format>
        <dc:type
           rdf:resource="http://purl.org/dc/dcmitype/StillImage" />
      </cc:Work>
    </rdf:RDF>
  </metadata>
  <g
     inkscape:label="Layer 1"
     inkscape:groupmode="layer"
     id="layer1">
    <g
       id="g3180">
      <g
         transform="matrix(0.6501762,0,0,0.6501762,18.84905,11.196563)"
         style="fill:#000000"
         id="g3307">
        <path
           style="font-size:178.02182007px;font-style:normal;font-variant:normal;font-weight:bold;font-stretch:normal;text-align:center;line-height:100%;writing-mode:lr-tb;text-anchor:middle;fill:#000000;fill-opacity:1;stroke:none;stroke-width:2.83464575;stroke-linecap:round;stroke-linejoin:round;stroke-miterlimit:4;stroke-dasharray:none;stroke-opacity:1;font-family:Arial"
           d="M 193.5,557.04066 L 193.5,685.4202 L 219.65625,685.4202 L 219.65625,557.04066 L 193.5,557.04066 z M 226.84375,557.04066 L 227,578.76788 L 240.09375,578.76788 C 250.7053,578.76799 257.06509,578.91694 259.1875,579.20873 C 263.43206,579.9094 266.73375,581.5908 269.0625,584.24692 C 271.39105,586.90327 272.56241,590.38123 272.5625,594.70118 C 272.56241,598.55429 271.67477,599.75288 269.90625,602.32145 C 268.13757,604.89019 265.68695,606.68678 262.5625,607.73751 C 259.43789,608.78841 251.58827,609.31203 239.03125,609.31195 L 227,609.31195 L 227,630.9447 L 241.1875,630.9447 L 270.75,685.4202 L 302.03125,685.4202 L 270.59375,629.18133 C 279.28129,627.17385 285.98757,623.54424 290.75,618.31772 C 296.4684,612.04212 299.53112,602.66486 299.53125,593.03228 C 299.53113,585.44314 297.61665,578.71288 293.84375,572.81651 C 290.0706,566.92035 285.05969,562.81051 278.78125,560.50442 C 272.50262,558.19859 262.44773,557.04079 248.59375,557.04066 L 226.84375,557.04066 z"
           id="path3297" />
        <path
           style="font-size:178.02182007px;font-style:normal;font-variant:normal;font-weight:bold;font-stretch:normal;text-align:center;line-height:100%;writing-mode:lr-tb;text-anchor:middle;fill:#000000;fill-opacity:1;stroke:none;stroke-width:2.83464575;stroke-linecap:round;stroke-linejoin:round;stroke-miterlimit:4;stroke-dasharray:none;stroke-opacity:1;font-family:Arial"
           d="M 123.70499,557.04066 L 178.14808,557.04066 L 178.14808,578.75835 L 123.70499,578.75835 L 123.70499,557.04066 z M 123.70499,609.14559 L 169.71638,609.14559 L 169.71638,630.86327 L 123.70499,630.86327 L 123.70499,609.14559 z M 116.51845,685.4202 L 90.788747,685.4202 L 90.788747,557.04066 L 116.51845,557.04066 L 116.51845,685.4202 z"
           id="path2405"
           sodipodi:nodetypes="ccccccccccccccc" />
        <path
           id="path2399"
           style="font-size:178.02182007px;font-style:normal;font-variant:normal;font-weight:bold;font-stretch:normal;text-align:center;line-height:100%;writing-mode:lr-tb;text-anchor:middle;fill:#000000;fill-opacity:1;stroke:none;stroke-width:2.83464575;stroke-linecap:round;stroke-linejoin:round;stroke-miterlimit:4;stroke-dasharray:none;stroke-opacity:1;font-family:Arial"
           d="M 358.78,656.25895 L 367.40674,632.26295 L 389.49674,632.26295 L 374.71065,586.99005 L 341.07151,685.4202 L 311.77715,685.4202 L 361.41117,557.04066 L 388.6186,557.04066 L 439.64341,685.4202 L 409.65365,685.4202 L 398.52729,656.25895 L 358.78,656.25895 z"
           sodipodi:nodetypes="cccccccccccc" />
        <path
           id="path3218"
           style="font-size:178.02182007px;font-style:normal;font-variant:normal;font-weight:bold;font-stretch:normal;text-align:center;line-height:100%;writing-mode:lr-tb;text-anchor:middle;fill:#000000;fill-opacity:1;stroke:none;stroke-width:2.7937119;stroke-linecap:round;stroke-linejoin:round;stroke-miterlimit:4;stroke-dasharray:none;stroke-opacity:1;font-family:Arial"
           d="M 501.6902,557.04066 L 501.6902,579.5093 C 518.05017,581.39643 520.47091,591.71911 520.22835,593.56362 L 547.89489,593.56362 C 539.13318,571.35495 526.25702,557.79727 501.6902,557.04066 z M 501.6902,663.98768 L 501.6902,685.41977 C 521.86884,684.05074 545.85883,676.77606 549.45797,655.32949 L 549.45797,616.8249 L 497.68871,616.8249 L 497.68871,639.72034 L 523.13568,639.72034 C 523.91386,651.95081 519.71343,662.63661 501.6902,663.98768 z M 494.50003,685.51123 C 494.50003,678.29822 494.50003,671.11749 494.50003,663.98768 C 474.09359,662.02075 464.48593,639.20143 465.02032,619.87357 C 465.55042,600.70087 475.91569,580.81771 494.50003,579.32637 L 494.50003,557.1931 C 454.9989,559.9218 440.66105,583.7197 439.38578,620.87962 C 439.78741,659.24775 457.66884,683.95499 494.50003,685.51123 z" />
        <path
           style="font-size:178.02182007px;font-style:normal;font-variant:normal;font-weight:bold;font-stretch:normal;text-align:center;line-height:100%;writing-mode:lr-tb;text-anchor:middle;fill:#000000;fill-opacity:1;stroke:none;stroke-width:2.83464575;stroke-linecap:round;stroke-linejoin:round;stroke-miterlimit:4;stroke-dasharray:none;stroke-opacity:1;font-family:Arial"
           d="M 576.28792,685.4202 L 576.28792,557.04066 L 602.01764,557.04066 L 602.01764,685.4202 L 576.28792,685.4202 z"
           id="path2393" />
        <path
           id="path3301"
           style="font-size:178.02182007px;font-style:normal;font-variant:normal;font-weight:bold;font-stretch:normal;text-align:center;line-height:100%;writing-mode:lr-tb;text-anchor:middle;fill:#000000;fill-opacity:1;stroke:none;stroke-width:2.84967399;stroke-linecap:round;stroke-linejoin:round;stroke-miterlimit:4;stroke-dasharray:none;stroke-opacity:1;font-family:Arial"
           d="M 652.87179,557.04066 L 652.87179,685.4202 L 627.14638,685.4202 L 627.14638,557.04066 L 652.87179,557.04066 z M 660.18573,685.4202 L 660.18573,663.61157 L 716.83767,663.61157 L 716.83767,685.4202 L 660.18573,685.4202 z" />
        <path
           id="path3261"
           style="font-size:178.02182007px;font-style:normal;font-variant:normal;font-weight:bold;font-stretch:normal;text-align:center;line-height:100%;writing-mode:lr-tb;text-anchor:middle;fill:#000000;fill-opacity:1;stroke:none;stroke-width:2.83464575;stroke-linecap:round;stroke-linejoin:round;stroke-miterlimit:4;stroke-dasharray:none;stroke-opacity:1;font-family:Arial"
           d="M 768.1875,557.04066 L 768.1875,578.76256 L 829.75,578.76256 L 829.75,557.04066 L 768.1875,557.04066 z M 768.1875,607.22138 L 768.1875,628.84883 L 824.96875,628.84883 L 824.96875,607.22138 L 768.1875,607.22138 z M 768.1875,663.79275 L 768.1875,685.4202 L 832.1875,685.4202 L 832.1875,663.79275 L 768.1875,663.79275 z M 761,685.4202 L 761,557.04066 L 735.28125,557.04066 L 735.28125,685.4202 L 761,685.4202 z" />
      </g>
      <path
         style="fill:#000000;fill-opacity:1;stroke:none;stroke-width:4.43267727;stroke-linecap:round;stroke-linejoin:bevel;stroke-miterlimit:4;stroke-dasharray:none;stroke-opacity:1"
         d="M 242.32703,341.80703 C 246.88451,336.23043 275.42538,324.49751 290.16767,322.14017 L 304.92612,319.78021 L 304.92612,203.56548 L 295.7909,200.78844 C 283.35146,197.00694 265.48613,184.61822 256.72686,173.69947 C 242.36894,155.80175 241.79609,152.88541 240.91175,93.188012 L 240.11147,39.301441 L 281.88329,39.301441 L 291.18353,52.194751 L 263.63811,53.35162 L 289.87987,89.316652 L 264.08633,90.815947 L 302.13534,136.58608 L 285.58096,103.3497 L 315.40721,101.37357 L 289.87987,65.328086 L 315.67346,63.711641 L 298.33848,39.163338 L 397.68381,39.163338 L 396.88352,93.188012 C 395.9992,152.88541 395.42634,155.80175 381.06842,173.69947 C 372.30035,184.62919 354.44063,197.00791 341.96993,200.79893 L 332.80025,203.58644 L 333.94388,319.39989 L 348.57252,322.14075 C 363.55012,324.947 391.14778,336.52039 395.46825,341.80703 C 397.48647,344.27655 385.00725,344.75741 318.89764,344.75741 C 252.78803,344.75741 240.30883,344.27655 242.32703,341.80703 z"
         id="path1379"
         sodipodi:nodetypes="cccccscccccccccccccccsccccssc" />
    </g>
  </g>
</svg>
