<?xml version="1.0"?><svg width="793.7007866666665" height="1122.5196666666666" xmlns="http://www.w3.org/2000/svg">
 <title>fregile1</title>

 <g>
  <title>Layer 1</title>
  <g id="layer1">
   <g id="g2094">
    <g id="g2087">
     <rect fill="#ffffff" stroke="#000000" stroke-width="8" stroke-miterlimit="4" y="294.983475" x="176.100393" width="205.587402" id="rect2037" height="208.37873"/>
     <g id="g2098">
      <path fill="#000000" stroke-width="8" stroke-miterlimit="4" id="path2059" d="m216.928284,340.971985c0.914032,12.258057 4.384308,23.488129 9.478775,33.348969l9.478775,-14.987823l-2.738312,-1.024811l-3.791504,-1.366394l1.979996,-3.501434l6.951096,-12.468506l-21.358826,0zm29.110352,0l-6.866837,12.297699l2.948959,1.067505l4.002136,1.451813l-2.274902,3.586823l-13.649429,21.649109c11.138458,17.135925 28.120895,28.267609 47.393845,28.267609c31.889648,0 57.813477,-30.090881 60.664124,-68.320557l-92.217896,0z"/>
      <rect fill="#000000" stroke-width="8" stroke-miterlimit="4" y="402.443002" x="270.851949" width="13.480915" id="rect2072" height="61.488515"/>
      <rect fill="#000000" stroke-width="8" stroke-miterlimit="4" y="453.000226" x="243.890119" width="67.404574" id="rect2074" height="10.931292"/>
     </g>
    </g>
    <g id="g2072">
     <rect fill="#ffffff" stroke="#000000" stroke-width="8" stroke-miterlimit="4" y="55.861465" x="412.016289" width="205.584113" id="rect2035" height="208.37873"/>
     <g id="g2109">
      <rect fill="#000000" stroke-width="5" stroke-miterlimit="4" y="220.431786" x="447.66897" width="134.809148" id="rect2099" height="13.664114"/>
      <rect fill="#000000" stroke-width="5" stroke-miterlimit="4" y="117.950928" x="470.586525" width="21.569464" id="rect2101" height="95.648801"/>
      <path fill="#000000" stroke-width="5" stroke-miterlimit="4" id="path2103" d="m501.592651,124.782982l-20.221436,0l-20.221375,0l10.110718,-17.080147l10.110657,-17.080139l10.110718,17.080139l10.110718,17.080147z"/>
      <rect fill="#000000" stroke-width="5" stroke-miterlimit="4" y="117.950928" x="537.991139" width="21.569464" id="rect2105" height="95.648801"/>
      <path fill="#000000" stroke-width="5" stroke-miterlimit="4" id="path2107" d="m568.997253,124.782982l-20.221436,0l-20.221375,0l10.110657,-17.080147l10.110718,-17.080139l10.110657,17.080139l10.110779,17.080147z"/>
     </g>
    </g>
    <g id="g2081">
     <rect fill="#ffffff" stroke="#000000" stroke-width="8" stroke-miterlimit="4" y="294.983475" x="412.016276" width="205.584113" id="rect2039" height="208.37873"/>
     <g id="g2144">
      <path fill="#000000" stroke-width="5" stroke-miterlimit="4" id="path2116" d="m517.167542,344.19278c-37.207275,0 -67.404602,21.425354 -67.404602,47.824402c0,-4.525574 7.549316,-8.198486 16.851135,-8.198486c9.30188,0 16.851196,3.672913 16.851196,8.198486c0,-4.525574 7.549316,-8.198486 16.851135,-8.198486c9.301819,0 16.851135,3.672913 16.851135,8.198486c0,-4.525574 7.549316,-8.198486 16.851135,-8.198486c9.301819,0 16.851135,3.672913 16.851135,8.198486c0,-4.525574 7.549316,-8.198486 16.851135,-8.198486c9.301819,0 16.851135,3.672913 16.851135,8.198486c0,-26.399078 -30.197266,-47.824402 -67.404541,-47.824402z"/>
      <path fill="#000000" stroke-width="5" stroke-miterlimit="4" id="rect2131" d="m511.775146,330.528656l0,122.97702c0,3.017059 -2.415771,5.465668 -5.392334,5.465668c-2.976563,0 -5.392395,-2.448608 -5.392395,-5.465668l0,-2.732819l-10.784729,0l0,2.732819c0,9.051117 7.247314,16.396942 16.177124,16.396942c8.929749,0 16.177063,-7.345825 16.177063,-16.396942l0,-122.97702l-10.784729,0z"/>
     </g>
    </g>
    <g id="g2062">
     <rect fill="#ffffff" stroke="#000000" stroke-width="8" stroke-miterlimit="4" y="55.861465" x="176.100388" width="205.587402" id="rect1306" height="208.37873"/>
     <g id="g2054">
      <g id="g2177">
       <path fill="#000000" stroke-width="5" stroke-miterlimit="4" id="rect2148" d="m251.593506,109.835709l26.961853,-20.496185l26.961792,20.496178l-26.961792,20.496162l-26.961853,-20.496155z"/>
       <path fill="#000000" stroke-width="5" stroke-miterlimit="4" id="rect2170" d="m305.517151,118.375771l-22.917542,17.421745l0,27.328232l22.917542,-17.421753l0,-27.328224z"/>
       <path fill="#000000" stroke-width="5" stroke-miterlimit="4" id="path2175" d="m251.593506,118.375771l22.917542,17.421745l0,27.328232l-22.917542,-17.421753l0,-27.328224z"/>
      </g>
      <path fill="#000000" fill-rule="evenodd" stroke-width="1px" id="path1324" d="m271.805481,220.944656c0,-8.114944 0,-12.770142 0,-20.885086c0,-11.419067 -15.355347,-28.067337 -25.312561,-39.738251c-2.724121,-2.722702 -7.622192,-3.778473 -10.208649,-1.193375c-2.297409,2.296188 -2.123993,7.934921 -0.298523,10.740341c3.343201,5.091736 6.686371,10.183456 10.029572,15.275177c1.675598,2.900726 -2.436142,5.249802 -4.895355,2.148071c-12.839935,-17.621277 -16.356476,-21.193802 -16.356476,-28.282928c0,-14.479599 0,-14.280685 0,-28.760254c0,-4.145576 -2.991241,-8.114952 -6.812988,-8.114952c-3.636902,0 -6.799744,3.817535 -6.799744,7.415855c0,23.390121 0,32.199127 0,55.589233c0,7.204208 22.447052,28.995438 22.447052,39.147598c0,2.386734 0,4.773468 0,7.160233c12.739014,0 25.478058,0 38.217072,0c-0.003113,-3.500549 -0.006256,-7.001129 -0.009399,-10.501663z"/>
      <path fill="#000000" fill-rule="evenodd" stroke-width="1px" id="path2052" d="m285.305176,220.944656c0,-8.114944 0,-12.770142 0,-20.885086c0,-11.419067 15.355347,-28.067337 25.312592,-39.738251c2.724121,-2.722702 7.622162,-3.778473 10.208649,-1.193375c2.297394,2.296188 2.123993,7.934921 0.298523,10.740341c-3.343201,5.091736 -6.686371,10.183456 -10.029572,15.275177c-1.675629,2.900726 2.436127,5.249802 4.895355,2.148071c12.839935,-17.621277 16.356445,-21.193802 16.356445,-28.282928c0,-14.479599 0,-14.280685 0,-28.760254c0,-4.145576 2.991272,-8.114952 6.812988,-8.114952c3.636902,0 6.799744,3.817535 6.799744,7.415855c0,23.390121 0,32.199127 0,55.589233c0,7.204208 -22.447021,28.995438 -22.447021,39.147598c0,2.386734 0,4.773468 0,7.160233c-12.739014,0 -25.478058,0 -38.217102,0c0.003143,-3.500549 0.006287,-7.001129 0.009399,-10.501663z"/>
     </g>
    </g>
   </g>
  </g>
  <text font-weight="bold" xml:space="preserve" text-anchor="middle" font-family="Arial" font-size="107" id="svg_1" y="605.480347" x="398.649582" stroke-width="0" stroke="#000000" fill="#000000">FRAGILE</text>
  <text xml:space="preserve" text-anchor="middle" font-family="Arial" font-size="32" id="svg_2" y="673.057685" x="400.81982" stroke-width="0" stroke="#000000" fill="#000000">PLEASE, HANDLE WITH CARE</text>
  <rect id="svg_3" height="12.857137" width="448.571416" y="690.337429" x="174.870615" stroke-width="5" stroke="#000000" fill="#000000"/>
  <rect id="svg_4" height="12.857137" width="448.571416" y="621.766088" x="173.442074" stroke-width="5" stroke="#000000" fill="#000000"/>
 </g>
</svg>